<?xml version="1.0" encoding="UTF-8" standalone="no"?>
<!-- Generator: Adobe Illustrator 16.0.0, SVG Export Plug-In . SVG Version: 6.00 Build 0)  -->
<!DOCTYPE svg  PUBLIC '-//W3C//DTD SVG 1.1//EN'  'http://www.w3.org/Graphics/SVG/1.1/DTD/svg11.dtd'>
<svg id="Layer_1" xmlns="http://www.w3.org/2000/svg" xml:space="preserve" height="508.38px" viewBox="0 0 254.19 508.381" width="254.19px" version="1.1" y="0px" x="0px" xmlns:xlink="http://www.w3.org/1999/xlink" enable-background="new 0 0 254.19 508.381">
<path fill="#1B673E" clip-rule="evenodd" d="m141.74 241.58c-0.348 3.702-0.695 7.405-1.112 11.851-0.253-4.664-0.465-8.599-0.678-12.533-1.771 6.005-2.112 12.134-2.333 18.341-0.635-5.031-1.969-9.83-4.739-15.464 2.042 12.216-0.472 23.333 0.249 34.507 1.578 24.449 0.824 48.94 0.846 73.404 0.041 47.483 2.021 94.939 1.627 142.43-0.03 3.734-0.784 4.783-4.57 4.743-11.289-0.12-11.318 0.052-10.722-11.362 0.878-16.818 0.336-33.637 0.247-50.463-0.234-44.142 0.04-88.286-0.099-132.43-0.051-16.316 0.192-32.65-0.99-48.949-0.068-0.937 0.173-1.988-1.012-2.979-0.321 1.897-0.607 3.59-0.924 5.459-0.287-2.645-0.107-5.197-1.861-7.854-0.369 1.531-0.643 2.67-1.103 4.582-0.428-1.838-0.668-2.876-0.91-3.913-0.191 0.038-0.381 0.075-0.572 0.114v7.865c-0.227 0.016-0.453 0.031-0.68 0.046-0.474-3.741-0.947-7.482-1.448-11.438-1.979 1.164-1.401 3.303-3.017 4.688v-3.6c-1.971-0.19-1.672 1.558-2.533 2.154-0.264-1.266-1.623-2.095-1.361-3.592 0.545-3.118 1.171-6.015-1.8-8.745-0.975-0.896-2.362-3.904-0.367-6.187 0.36-0.413 1.078-2.374-1.09-2.249 0.362-3.795 3.12-7.188 1.943-11.373-1.537 2.119-2.384 4.449-2.717 6.821-0.271 1.928-3.324 4.029 0.03 5.954-0.414 1.358-0.828 2.717-1.298 4.258-4.518-9.616 2.347-18.282 1.367-27.952-3.428 4.939-2.342 10.94-5.677 15.26-1.759-6.504-1.646-13.443-4.734-19.743-1.899 3.066-2.176 6.791-3.031 10.535-2.458-3.92 0.232-7.554 0.167-11.335-2.204 0.938-1.193 3.169-2.243 4.865-1.719-3.861 1.55-7.04 0.694-10.841-2.438 1.432 0.104 4.829-3.399 6.151 0.325-5.727 0.636-11.201 0.956-16.838-2.589 1.7-3.342 5.259-5.149 12.728-1.023 4.23-3.145 8.118-2.061 12.775-1.624-3.095-3.249-6.189-4.995-9.515-0.346 0.976-0.616 1.735-1.287 3.627-0.966-6.49-3.362-11.651-2.865-17.471-0.701 1.065-1.402 2.13-2.626 3.99 0.399-5.308 5.506-8.801 2.438-13.869-2.139 3.888-4.271 7.764-6.404 11.64 1.313-8.039 6.446-14.442 9.532-21.732-1.843-0.705-1.938 1.499-3.272 1.123 0-0.272-0.095-0.733 0.014-0.788 5.79-2.893 2.353-7.67 1.998-11.506-0.235-2.531-0.724-4.955 0.708-8.576-3.467 2.729-4.039 5.659-5.468 8.617-1.754-2.06-4.34-3.347-3.167-6.95-8.789 8.117-18.644 14.988-21.831 27.394-1.001-2.812 1.638-5.008 0.492-7.627-2.214 0.395-2.401 3.028-5.44 4.452 1.618-2.496 2.635-4.063 3.649-5.633 0.542-0.838 1.402-1.623 1.564-2.531 1.457-8.131 1.42-8.138 7.009-15.578-4.283 0.931-8.262 2.546-11.03 6.4 2.478-6.852 8.46-10.679 13.062-15.635 3.196-3.442 6.068-6.792 3.837-12.069-2.33 1.961-0.615 5.373-2.542 7.546-1.355-0.918-0.401-2.459-1.156-3.567-1.37 3.089-5.448 4.506-4.444 9.038-2.549-1.69-0.482-6.03-3.579-5.588-3.836 0.546-0.537 4.626-2.28 6.83-1.445-4.088-1.176-8.18-0.902-12.33-3.089 3.972-0.608 8.802-2.455 13.787-0.302-4.318-0.55-7.874-0.821-11.751-3.063 2.456-1.53 6.011-2.656 8.864-1.648-1.442-0.007-3.143-1.158-4.739-3.233 4.728-4.763 10.072-6.953 15.305-1.288-2.035 1.409-3.845-0.069-5.685-2.06 0.074-2.136 2.729-3.937 3.386-1.553-2.336 1.271-4.198 0.747-6.39-2.231 0.078-1.748 4.753-4.098 2.992-3.191-2.39 1.136-3.433 1.965-4.934 2.97-5.378 7.449-9.608 11.672-14.187-2.794 1.84-5.587 3.681-8.381 5.521-0.287-0.308-0.573-0.615-0.86-0.922 10.29-6.96 14.617-19.542 25.624-25.747-3.119-3.002-5.695 3.783-8.873 0.49 1.501-2.068 5.575-2.389 3.859-6.689-0.577-1.447 1.952-2.484 3.525-2.804 3.622-0.737 6.608-2.573 9.833-4.273 5.094-2.686 11.009-3.674 16.87-2.245 2.019 0.493 3.947 0.216 5.917 0.292 1.593 0.061 1.397-0.763 1.05-1.899-0.663-2.164-0.727-0.56-1.598-0.058-2.625 1.513-3.515 0.025-3.15-5.479-1.967 0.765-0.508 4.74-3.278 3.96-4.257-1.198-1.693-5.399-2.925-8.172-2.316 2.355-0.59 5.579-2.077 8.523-1.225-4.982 0.144-9.627-0.804-15.092-2.157 3.12-1.56 6.062-2.495 8.52-0.232 0.609 0.635 2.043-1.005 1.791-1.28-0.197-1.898-0.85-1.873-2.384 0.022-1.34 0.904-2.856-0.283-4.172-1.302 0.588-0.755 1.764-0.996 2.651-0.369 1.358-0.139 3.677-2.076 3.271-1.517-0.318-2.165-2.334-1.447-4.194 0.218-0.564 0.265-1.194 0.508-2.355-2.076 2.03-1.334 5.498-4.619 5.721-0.304-4.593 2.879-7.998 5.324-12.62-5.454 2.483-7.924 9.822-6.199 15.367-2.748-0.853-1.733-3.423-1.855-5.345-2.203 0.376-0.916 2.245-2.389 2.9-1.202-1.062-1.343-2.672-1.087-4.208 0.895-5.371 5.066-9.665 5.15-15.353 0.005-0.348 1.01-0.862 1.615-0.99 5.625-1.189 7.399-5.586 8.737-10.361 0.349-1.246 1.362-2.795 0.108-3.695-1.104-0.792-2.94-1.753-4.188-0.918-2.883 1.927-7.596 1.697-8.197 6.802-1.578-3.921 2.576-7.971-0.246-12.042 1.053-0.894 4.146 1.834 4.734-1.038 0.384-1.88-2.785-1.906-3.821-4.652 4.107 3.302 7.523 3.277 11.328 0.612 2.681-1.878 5.958-0.834 9.33 1.041-0.697-3.067-2.63-4.282-4.906-5.315 0.616-0.35 1.088-0.675 1.126-0.631 5.783 6.791 16.951 7.521 19.827 17.603 0.304 1.066 0.748 2.364 2.356 1.987 1.269-0.297 1.163-1.492 1.319-2.41 0.565-3.326-0.516-7.129 3.342-9.446 0.777-0.467 1.183-2.763-0.443-3.378-1.13-0.428-2.979-1.219-3.805 0.894-0.542 1.387-1.106 2.766-2.007 4.363 0.468-2.368-1.933-3.011-2.414-4.706-1.524-5.36 2.628-8.122 6.074-9.814 2.82-1.385 6.039-5.648 10.14-1.749 0.88 0.837 1.503-0.041 1.77-0.837 2.655-7.92 10.066-9.518 16.548-10.899 4.201-0.895 4.649-2.288 4.53-5.559-0.064-1.783 0.158-3.576 0.848-5.414 0.172 0.937 0.523 1.881 0.486 2.81-0.2 4.942 1.587 8.577 6.493 10.24 0.982 0.333 1.294 0.748 1.575 1.923 0.564 2.356 1.987 4.145 4.804 2.027 3.492-2.626 1.531 1.841 3.282 2.305 3.08-6.915 3.97-14.768 8.23-21.356-0.818 3.69-1.666 7.374-2.435 11.074-0.171 0.821-0.989 2.276 0.562 2.332 6.912 0.249 2.511 7.158 5.581 9.627-1.252-1.683-2.505-3.366-3.786-5.089-3.781 4.708 2.213 7.445 2.057 11.447-1.733-0.333-1.803-2.286-3.604-3.093 0.457 1.848 0.847 3.419 1.221 4.928-1.297 0.84-1.746-2.726-2.597-0.569-0.529 1.343-0.126 4.056 1.759 4.573 1.244 0.341 3.64 0.902 4.531-0.822 1.723-3.327 5.855-3.74 7.688-6.875 0.557-0.953 2.402-1.949 2.921-0.893 1.958 3.986 7.035 1.639 9.303 5.026 0.918 1.371 0.775-2.038 3.134-1.259 5.585 1.844 13.289 9.458 14.338 15.638 0.308 1.814 2.663 3.37 0.324 5.648-1.483-1.952-2.673-4.538-5.551-4.969-1.153 1.261 0.828 2.343 0.267 3.611-1.836-0.402-0.713-3-2.885-3.278-1.065 2.173-0.148 4.316 0.367 6.432 0.544 2.227 1.217 4.423 2.124 7.678-1.214-1.517-1.814-2.269-2.478-3.097-1.758 1.577 0.223 4.131-1.791 6.221-0.803-3.038-1.494-5.656-2.187-8.275-0.204 0.027-0.407 0.054-0.611 0.081 0.647 6.591 1.294 13.182 2.034 20.717 3.512-3.193 6.594-6.04 9.726-8.831 3.63-3.235 6.951-7.015 12.343-7.28 0.474-0.023 1.249-0.385 1.365-0.221 3.012 4.242 7.611 4.073 12.074 5.063 4.06 0.901 5.562 5.695 8.271 8.699-4.05 3.269 1.149 5.395 1.113 8.298-0.044 3.425 1.012 6.883 1.747 10.293 0.415 1.929 0.042 3.349-1.29 4.894-1.82 2.113-2.833 2.272-4.06-0.459-0.396-0.879 0.468-2.87-2.36-2.508-3.645 0.467-0.887 2.313-1.339 3.371-0.884 2.068-1.996 4.006-1.217 6.462-1.08-1.761-2.16-3.522-3.376-5.504-1.617 1.27 0.195 3.448-1.646 4.432-0.77-4.43 0.008-9.324-4.237-13.269 0.645 3.79 1.189 6.993 1.734 10.197-0.18 0.036-0.357 0.072-0.536 0.108-0.896-2.754-1.79-5.508-2.962-9.113-0.301 2.068-0.486 3.336-0.811 5.562-0.836-3.561-1.467-6.244-2.098-8.928-0.235 0.046-0.471 0.092-0.705 0.138 0.281 3.91 0.562 7.819 0.879 12.23-2.404-4.683-1.26-9.767-3.689-14.904-0.924 5.263 1.348 9.47 0.625 14.195-1.377-4.946-1.123-9.854-3.697-14.88-1.643 2.96-0.861 5.349-0.51 7.649 0.679 4.436 1.648 8.832 1.437 13.365-0.134 2.867-0.021 5.221 3.979 3.048 1.998-1.085 4.372-0.885 5.797 1.262 2.002 3.013 5.34 3.489 8.262 4.003 9.688 1.707 20.195 11.367 22.539 21.043 0.406 1.677 1.592 3.403 2.895 4.577 3.068 2.764 3.875 5.279-0.078 7.93-2.086-0.682-2.402-3.659-5.203-4.774 0.82 5.902-1.812 11.387 0.188 17.131-3.048-3.053-7.285-4.31-8.833-8.777-1.352-3.898-3.808-7.413-6.145-10.963 0.016 5.984 6.4 10.651 3.121 17.327-0.795-3.644-4.043-4.325-6.932-5.575 1.243 3.109 4.953 3.963 6.379 7.078 0.677 1.479 1.001 1.822-0.208 3.093-1.415 1.487-1.819 0.355-2.585-0.399-2.822-2.781-5.656-5.55-8.812-8.645-0.249 6.155 2.082 11.024 5.732 15.586-4.412-0.281-4.492-0.23-8.731-6.895-1.464-2.3-2.429-3.362-3.569 0.394-1.378-3.153-2.993-5.812-2.729-9.435-3.491 2.726-1.482 6.355-2.979 9.715-2.329-4.647-4.453-8.882-6.639-13.242-1.822 3.943 0.347 7.034 2.222 10.027 3.298 5.263 6.228 10.516 6.204 17.062-0.008 2.153 1.472 4.312 2.527 7.157-1.292-0.87-1.986-1.337-3.205-2.159 1.073 2.807 1.962 5.133 2.945 7.704-2.254 0.161-1.979-2.656-4.104-2.704-0.52 7.541 2.251 14.724 2.492 22.149 0.057 1.754 1.693 3.877-1.404 4.725-0.318 0.087-0.441 0.887-0.655 1.356-0.175-0.785-0.351-1.569-0.526-2.354-0.494 3.581-2.678 6.149-5.168 9.251-0.74-5.186-1.423-9.958-2.105-14.731-2.314 6.597 1.477 12.922 0.552 19.869-4.939-2.716-4.177-7.892-5.72-11.841-0.697-1.788-0.631-3.954-0.577-5.94 0.165-6.136-2.38-11.172-5.981-15.903-1.232 1.086-0.477 2.181-0.295 3.261 0.138 0.813 0.154 1.646 0.225 2.471-1.266-1.028-3.86 1.689-4.361-1.605-0.654-4.309-2.318-8.236-4.625-12.037-1.43 1.348-0.08 2.228 0.241 3.116 1.112 3.073 1.042 3.012 0.069 6.412-0.63 2.199 1.734 4.303 0.464 6.953-0.948-2.524-1.807-4.809-2.665-7.094-0.239 0.053-0.479 0.107-0.717 0.161 0.919 4.321 1.838 8.642 2.757 12.963-3.997-4.649-2.927-10.895-5.595-16.604-0.588 5.417 1.768 9.996 1.561 15.738-1.09-2.528-0.734-4.691-2.598-6.219 0.385 4.285 1.102 8.338 0.201 12.47-0.323-4.018-0.773-8.01-2.406-13.063-0.113 7.987 0.988 14.762-0.75 22.305-0.17-3.644-0.299-6.436-0.463-9.963-2.064 4.937-2.133 9.552-4.737 13.853m-9.47 26.75m2-25.23m14.52-130.64c2.77 2.733 6.498 3.494 10.378 5.911-0.522-1.556-0.779-2.008-0.813-2.476-0.215-3.001-2.904-5.326-1.76-8.85 1.17-3.601-2.638-2.777-4.316-3.442-2.422-0.959-1.234 1.425-1.631 2.346-0.383 0.892-0.729 1.8-1.092 2.701-0.304-2.014 0.643-4.152-0.367-6.308-0.855 0.445-1.566 0.615-1.979 1.062-2.312 2.504-0.994 5.95-2.041 8.835-0.11 0.305 2.32 0.491 3.62 0.223zm13.83 8.523c3.939 5.963 7.628 11.843 10.2 18.546 2.658-3.21-1.389-7.81 2.895-10.192-1.396-0.904 0.781-3.23-1.953-3.968-3.83-1.04-7.44-2.89-11.15-4.39zm4.17 34.09c-1.094-2.152 1.159-5.08-1.638-6.897-1.238 2.014-0.065 4.738-2.019 6.556-0.839-1.737 0.212-3.288 0.215-4.885 0.003-1.483 0.722-3.159-1.054-4.493-1.867 12.126-0.516 14.63 9.856 17.815-1.263-3.888-2.421-7.451-3.599-11.074-1.45 0.79-0.16 2.57-1.76 2.97zm3.32-16.34c-5.812-15.583-13.662-22.102-24.213-19.773 5.102 3.011 10.785 2.644 15.039 6.321 4.41 3.81 4.79 9.95 9.17 13.45zm-89.809-20.88c-4.82-1.936-2.75 2.469-3.339 4.481-0.686 2.343 1.238 3.25 2.771 2.859 2.211-0.564 5.716 0.129 5.842-3.696 0.106-3.23-1.79-4.32-5.274-3.64zm77.619-46.624c1.763 6.872 1.795 13.538 2.612 20.122 0.153 1.229-0.819 3.362 1.905 2.974 2.656-0.379 2.061-2.184 1.43-3.731-1.953-4.797-2.147-9.93-3.108-14.918-0.29-1.488 0.3-3.777-2.84-4.447zm24.48 55.204c-1.943-2.141-2.861-3.977-4.8-5.146-1.558-0.939-2.499-2.977-4.817-2.347-0.113-0.812 0.07-2.006-0.394-2.367-1.726-1.339-2.331 0.203-2.423 1.469-0.094 1.311-1.28 3.123 0.728 3.934 3.58 1.47 6.47 4.65 11.7 4.47zm-71.82-48.452c-2.025 1.843 1.104 6.268-4.143 5.992-1.582-0.083-1.854 3.066-0.957 5.176 0.861 2.027 1.768 3.425 4.392 2.871 2.61-0.551 1.834-2.456 1.749-3.906-0.2-3.293-0.66-6.571-1.04-10.133zm-18.54 2.515c-2.221 8.578-3.388 7.788 4.507 13.393-3.59-4.565 1.78-10.717-4.51-13.393zm-1.98 19.484c1.32 1.875 1.178 5.199 4.254 4.371 1.138-0.306 1.599-2.439 0.993-3.426-1.29-2.098-3.451-3.627-5.857-3.996-1.824-0.28-1.871 1.541-1.433 2.855 0.316 0.95 0.02 2.282 1.409 2.876 0.2-0.818 0.37-1.541 0.64-2.68zm12.47-11.905c-1.178 0.531 1.103 2.696-1.185 2.768-1.337-1.863-0.031-4.09-1.174-6.743-0.527 4.186-3.535 7.044-2.025 10.91 6.26-4.29 6.26-4.29 4.39-6.935zm20.7 23.432c1.64-2.383 2.878-3.615 3.413-5.101 0.739-2.051-1.088-3.608-1.808-5.365-0.345-0.839-0.572-0.304-1.128 0.206-1.238 1.133-2.488 1.72-1.405 3.878 0.76 1.49 0.56 3.455 0.93 6.382zm-26.54 0.656c-1.042-1.401-1.645-2.853-2.103-4.471-0.564-1.995-2.49-1.792-4.033-2.139-1.061-0.239-1.037 0.59-0.968 1.169 0.207 1.734-0.007 3.729 2.443 4.232 1.57 0.323 3.11 0.801 4.66 1.209zm36.55-24.584c-2.601 5.286-2.601 5.286 4.32 8.133 0.271-1.435 0.539-2.85 0.92-4.863-5.69 4.199-3.4-2.212-5.24-3.27zm-17.31-13.668c0.281 4.358 2.699 7.277 0.096 10.437-0.684 0.831 0.438 3.124 0.676 4.753 0.131 0.889 0.326 1.708 1.457 1.422 0.919-0.233 0.996-1.084 1.241-1.908 0.517-1.74-2.192-2.23-1.257-4.314 1.46-3.275-0.4-6.183-2.22-10.39zm11.19 77.982c2.773-3.272 1.419-6.374 1.227-9.271-0.057-0.856-1.129-1.607-2.301-1.207-0.981 0.335-1.068 1.218-0.898 2.013 0.56 2.66 1.22 5.29 1.97 8.47zm51.77-33.55c-1.148-3.827 0.791-7.595-1.432-10.914 0.1 3.547-4.56 7.608 1.43 10.914zm-57.54-37.5c0.855-1.51 1.776-2.692 2.211-4.031 0.436-1.34-0.112-2.524-1.561-3.213-0.961-0.457-1.83-0.78-2.749-0.079-1.261 0.962-0.548 2.145-0.114 3.106 0.59 1.318 0.48 2.984 2.21 4.217zm-23.14 44.14c-4.056-1.939-5.575 1.108-7.363 3.242-0.671 0.801 0.248 1.395 1.125 1.607 3.86 0.93 5.04-1.78 6.23-4.85zm57.43-47.498c0.535 4.064 1.088 8.127 1.595 12.196 0.114 0.914 0.448 2.818-0.104 2.598-2.746-1.098-1.576 1.188-1.595 1.836-0.026 0.898 0.871 0.495 1.511 0.481 1.67-0.035 1.836-0.989 1.669-2.304-0.64-5.05-0.86-10.172-3.08-14.807zm-108.69 46.228c1.065-3.816-0.839-5.166-4.23-5.654-1.64-0.236-1.885 0.98-2.559 1.765-0.17 0.198 0.158 0.824 0.257 1.254 3.207-1.73 3.55 2.99 6.532 2.63zm48.751-25.328c-1.552-3.228-3.495-5.846-6.485-7.429-0.74-0.392-1.493-0.91-2.085 0.034-0.498 0.794-0.194 1.615 0.562 2.122 2.653 1.781 5.333 3.519 8.003 5.273zm30.46 24.128c1.676 0 3.275-0.168 4.822 0.045 1.701 0.234 2.324-0.958 3.107-1.94 0.232-0.29 0.238-1.188 0.024-1.333-1.019-0.691-2.165-0.708-3.278-0.129-1.6 0.85-4.06 0.4-4.67 3.36zm15.04-11.296c1.115 1.346 2.182 2.691 2.44-0.691 0.146-1.915-0.812-3.184-2.627-3.802 0.089 1.85-3.206-0.245-2.501 2.068 0.35 1.132-0.78 4.86 2.69 2.425zm25.32 1.31c-1.32 1.91-1.824 3.777-1.845 5.823-0.017 1.609 1.116 2.036 2.276 2.043 2.385 0.015 0.917-1.505 0.76-2.388-0.33-1.77-0.77-3.518-1.2-5.476zm-38.93 14.266c1.41-0.615 3.798 0.656 3.959-1.246 0.23-2.707-2.566-1.471-3.799-1.574-1.454-0.121-4.405-0.875-4.422 1.273-0.03 2.7 3.16-0.03 4.26 1.55zm3.92 16.98c0.857-3.618-0.818-5.588-0.989-7.854-0.074-0.984-0.705-1.935-1.841-1.971-0.548-0.018-1.281 0.363-1.636 0.801-0.786 0.972-0.186 1.835 0.562 2.55 1.66 1.58 2.59 3.65 3.91 6.47zm-84.583-69.657c2.277-0.705 1.794-4.077 4.473-3.57 0.127-1.292 0.321-2.584 0.331-3.877 0.002-0.302-0.601-0.84-0.962-0.874-1.661-0.154-1.573 1.523-2.008 2.376-0.854 1.671-2.161 3.284-1.834 5.945zm36.571-0.64c-1.918 1.848-4.643 2.445-4.069 5.107 0.475 2.204 2.535 2.702 5.175 2.439-2.449-2.1-0.675-4.483-1.106-7.546zm-4.045 40.201c0.033-1.595-0.689-2.574-2.331-2.371-0.95 0.118-2.775-0.339-2.353 1.48 0.285 1.226 0.643 3.014 2.657 2.95 1.321-0.04 2.212-0.533 2.027-2.056z" fill-rule="evenodd"/>
<g id="PvT20s.tif">
		<path d="m254.19 504.28c0.006 3.424-0.672 4.102-4.096 4.096-82-0.123-164-0.123-246 0-3.424 0.006-4.097-0.672-4.095-4.096m117.54-246.15c0.316-1.869 0.603-3.562 0.924-5.459 1.185 0.99 0.944 2.042 1.012 2.979 1.183 16.299 0.939 32.633 0.99 48.949 0.139 44.144-0.135 88.288 0.099 132.43 0.089 16.826 0.631 33.645-0.247 50.463-0.596 11.414-0.566 11.242 10.722 11.362 3.786 0.04 4.54-1.009 4.57-4.743 0.394-47.486-1.586-94.942-1.627-142.43-0.021-24.464 0.732-48.955-0.846-73.404-0.721-11.174 1.793-22.291-0.249-34.507" fill="none"/>
		<path fill="#97644E" clip-rule="evenodd" d="m118.21 249.67c-0.326 1.925-0.616 3.641-0.937 5.536m16.39-4.41c0.761 12.234-1.304 13.51-0.573 24.843 1.601 24.797 0.836 49.636 0.858 74.448 0.041 48.158 2.049 96.289 1.649 144.45-0.03 3.787-0.795 4.851-4.635 4.811-11.449-0.122-11.479 0.053-10.875-11.524 0.891-17.057 0.341-34.114 0.251-51.18-0.238-44.77-1.027-140.49-1.168-185.26" fill-rule="evenodd"/>
</g>
</svg>
